<?xml version="1.0" encoding="utf-8"?>
<!-- Generator: Adobe Illustrator 24.0.2, SVG Export Plug-In . SVG Version: 6.00 Build 0)  -->
<svg version="1.1"
	 id="svg1008" xmlns:cc="http://creativecommons.org/ns#" xmlns:dc="http://purl.org/dc/elements/1.1/" xmlns:rdf="http://www.w3.org/1999/02/22-rdf-syntax-ns#" xmlns:svg="http://www.w3.org/2000/svg"
	 xmlns="http://www.w3.org/2000/svg" xmlns:xlink="http://www.w3.org/1999/xlink" x="0px" y="0px"
	 viewBox="-174.331 -123.304 1190.551 841.89" enable-background="new -174.331 -123.304 1190.551 841.89" xml:space="preserve">
<linearGradient id="path980_1_" gradientUnits="userSpaceOnUse" x1="1573.7843" y1="-944.1769" x2="111.3565" y2="466.7912" gradientTransform="matrix(0.3275 0 0 0.3275 134.5906 401.4009)">
	<stop  offset="0.048" style="stop-color:#FFF44F"/>
	<stop  offset="0.111" style="stop-color:#FFE847"/>
	<stop  offset="0.225" style="stop-color:#FFC830"/>
	<stop  offset="0.368" style="stop-color:#FF980E"/>
	<stop  offset="0.401" style="stop-color:#FF8B16"/>
	<stop  offset="0.462" style="stop-color:#FF672A"/>
	<stop  offset="0.534" style="stop-color:#FF3647"/>
	<stop  offset="0.705" style="stop-color:#E31587"/>
</linearGradient>
<path id="path980" fill="url(#path980_1_)" d="M688.246,199.715c-12.542-30.158-37.952-62.74-57.895-73.022
	c14.212,27.507,24.068,57.043,29.209,87.561l0.065,0.491c-32.614-81.34-87.922-114.118-133.11-185.536
	c-2.292-3.602-4.584-7.236-6.811-11.035c-1.277-2.193-2.293-4.158-3.177-5.959c-1.866-3.635-3.308-7.467-4.29-11.429
	c0-0.393-0.294-0.688-0.654-0.753c-0.164-0.033-0.36-0.033-0.557,0c-0.033,0-0.099,0.065-0.131,0.098
	c-0.033,0-0.131,0.099-0.197,0.099l0.099-0.196c-72.466,42.437-97.058,120.994-99.316,160.289
	c-28.947,1.997-56.617,12.64-79.408,30.617c-2.391-2.03-4.847-3.896-7.434-5.633c-6.581-23.019-6.844-47.35-0.818-70.533
	c-26.622,12.901-50.265,31.174-69.453,53.67h-0.131c-11.428-14.507-10.643-62.282-9.987-72.27c-3.373,1.375-6.614,3.078-9.627,5.108
	c-10.086,7.204-19.517,15.292-28.194,24.166c-9.889,10.02-18.894,20.826-26.982,32.353v0.033v-0.066
	c-18.533,26.295-31.697,55.995-38.705,87.431l-0.393,1.899c-0.557,2.554-2.489,15.26-2.849,18.01c0,0.23-0.033,0.426-0.066,0.622
	c-2.489,13.131-4.061,26.426-4.65,39.786v1.474c0.131,159.34,129.443,288.423,288.782,288.259
	c140.348-0.131,260.229-101.184,284.067-239.501c0.491-3.732,0.884-7.4,1.31-11.166
	C712.904,295.528,706.452,245.689,688.246,199.715z M355.716,425.528c1.342,0.654,2.619,1.343,3.995,1.965l0.196,0.131
	C358.499,426.968,357.091,426.281,355.716,425.528z M659.659,214.81v-0.262l0.065,0.295L659.659,214.81z"/>
<radialGradient id="path982_1_" cx="-6467.5674" cy="-9546.7471" r="1836.5227" gradientTransform="matrix(0.3275 0 0 0.3275 2746.0427 3192.6265)" gradientUnits="userSpaceOnUse">
	<stop  offset="0.129" style="stop-color:#FFBD4F"/>
	<stop  offset="0.186" style="stop-color:#FFAC31"/>
	<stop  offset="0.247" style="stop-color:#FF9D17"/>
	<stop  offset="0.283" style="stop-color:#FF980E"/>
	<stop  offset="0.403" style="stop-color:#FF563B"/>
	<stop  offset="0.467" style="stop-color:#FF3750"/>
	<stop  offset="0.71" style="stop-color:#F5156C"/>
	<stop  offset="0.782" style="stop-color:#EB0878"/>
	<stop  offset="0.86" style="stop-color:#E50080"/>
</radialGradient>
<path id="path982" fill="url(#path982_1_)" d="M688.246,199.715c-12.542-30.158-37.952-62.74-57.895-73.022
	c14.212,27.507,24.068,57.043,29.209,87.561v0.262l0.065,0.295c22.234,63.625,19.025,133.405-8.972,194.738
	c-33.073,70.959-113.104,143.687-238.388,140.15c-135.369-3.831-254.596-104.295-276.896-235.866
	c-4.061-20.761,0-31.272,2.03-48.136c-2.751,13.098-4.322,26.426-4.617,39.818v1.474c0.131,159.34,129.443,288.423,288.782,288.259
	c140.348-0.131,260.229-101.184,284.067-239.501c0.491-3.732,0.884-7.4,1.31-11.166
	C712.904,295.528,706.452,245.689,688.246,199.715z"/>
<radialGradient id="path984_1_" cx="-7138.6494" cy="-8795.9219" r="1836.528" gradientTransform="matrix(0.3275 0 0 0.3275 2746.0427 3192.6265)" gradientUnits="userSpaceOnUse">
	<stop  offset="0.3" style="stop-color:#960E18"/>
	<stop  offset="0.351" style="stop-color:#B11927;stop-opacity:0.74"/>
	<stop  offset="0.435" style="stop-color:#DB293D;stop-opacity:0.343"/>
	<stop  offset="0.497" style="stop-color:#F5334B;stop-opacity:0.094"/>
	<stop  offset="0.53" style="stop-color:#FF3750;stop-opacity:0"/>
</radialGradient>
<path id="path984" fill="url(#path984_1_)" d="M688.246,199.715c-12.542-30.158-37.952-62.74-57.895-73.022
	c14.212,27.507,24.068,57.043,29.209,87.561v0.262l0.065,0.295c22.234,63.625,19.025,133.405-8.972,194.738
	c-33.073,70.959-113.104,143.687-238.388,140.15c-135.369-3.831-254.596-104.295-276.896-235.866
	c-4.061-20.761,0-31.272,2.03-48.136c-2.751,13.098-4.322,26.426-4.617,39.818v1.474c0.131,159.34,129.443,288.423,288.782,288.259
	c140.348-0.131,260.229-101.184,284.067-239.501c0.491-3.732,0.884-7.4,1.31-11.166
	C712.904,295.528,706.452,245.689,688.246,199.715z"/>
<radialGradient id="path986_1_" cx="-6917.2114" cy="-9963.5234" r="1330.4386" gradientTransform="matrix(0.3275 0 0 0.3275 2746.0427 3192.6265)" gradientUnits="userSpaceOnUse">
	<stop  offset="0.132" style="stop-color:#FFF44F"/>
	<stop  offset="0.252" style="stop-color:#FFDC3E"/>
	<stop  offset="0.506" style="stop-color:#FF9D12"/>
	<stop  offset="0.526" style="stop-color:#FF980E"/>
</radialGradient>
<path id="path986" fill="url(#path986_1_)" d="M548.03,233.606c0.622,0.426,1.212,0.885,1.801,1.31
	c-7.236-12.836-16.274-24.624-26.785-34.939c-89.69-89.689-23.512-194.442-12.346-199.78l0.099-0.163
	c-72.466,42.437-97.058,120.994-99.316,160.289c3.372-0.229,6.713-0.524,10.15-0.524
	C473.959,159.896,522.227,188.091,548.03,233.606z"/>
<radialGradient id="path988_1_" cx="-7341.7871" cy="-8316.2139" r="874.4493" gradientTransform="matrix(0.3275 0 0 0.3275 2746.0427 3192.6265)" gradientUnits="userSpaceOnUse">
	<stop  offset="0.353" style="stop-color:#3A8EE6"/>
	<stop  offset="0.472" style="stop-color:#5C79F0"/>
	<stop  offset="0.669" style="stop-color:#9059FF"/>
	<stop  offset="1" style="stop-color:#C139E6"/>
</radialGradient>
<path id="path988" fill="url(#path988_1_)" d="M421.796,251.518c-0.491,7.171-25.836,31.927-34.71,31.927
	c-82.027,0-95.355,49.643-95.355,49.643c3.635,41.783,32.746,76.198,67.947,94.405c1.604,0.818,3.242,1.571,4.879,2.324
	c2.816,1.245,5.633,2.424,8.482,3.472c12.083,4.289,24.723,6.713,37.526,7.236c143.785,6.746,171.651-171.946,67.881-223.815
	c24.494-3.177,49.282,2.849,69.552,16.896c-25.771-45.516-74.038-73.71-126.397-73.809c-3.438,0-6.778,0.295-10.151,0.524
	c-28.947,1.997-56.617,12.64-79.407,30.617c4.388,3.732,9.364,8.71,19.811,18.992C371.466,229.218,421.697,249.193,421.796,251.518z
	"/>
<radialGradient id="path990_1_" cx="-8236.1963" cy="-8000.2432" r="463.704" gradientTransform="matrix(0.3183 -0.077 0.0901 0.3726 3783.3997 2609.3684)" gradientUnits="userSpaceOnUse">
	<stop  offset="0.206" style="stop-color:#9059FF;stop-opacity:0"/>
	<stop  offset="0.278" style="stop-color:#8C4FF3;stop-opacity:0.064"/>
	<stop  offset="0.747" style="stop-color:#7716A8;stop-opacity:0.45"/>
	<stop  offset="0.975" style="stop-color:#6E008B;stop-opacity:0.6"/>
</radialGradient>
<path id="path990" fill="url(#path990_1_)" d="M421.796,251.518c-0.491,7.171-25.836,31.927-34.71,31.927
	c-82.027,0-95.355,49.643-95.355,49.643c3.635,41.783,32.746,76.198,67.947,94.405c1.604,0.818,3.242,1.571,4.879,2.324
	c2.816,1.245,5.633,2.424,8.482,3.472c12.083,4.289,24.723,6.713,37.526,7.236c143.785,6.746,171.651-171.946,67.881-223.815
	c24.494-3.177,49.282,2.849,69.552,16.896c-25.771-45.516-74.038-73.71-126.397-73.809c-3.438,0-6.778,0.295-10.151,0.524
	c-28.947,1.997-56.617,12.64-79.407,30.617c4.388,3.732,9.364,8.71,19.811,18.992C371.466,229.218,421.697,249.193,421.796,251.518z
	"/>
<radialGradient id="path992_1_" cx="-7161.8359" cy="-9621.8896" r="629.0835" gradientTransform="matrix(0.3275 0 0 0.3275 2746.0427 3192.6265)" gradientUnits="userSpaceOnUse">
	<stop  offset="0" style="stop-color:#FFE226"/>
	<stop  offset="0.121" style="stop-color:#FFDB27"/>
	<stop  offset="0.295" style="stop-color:#FFC82A"/>
	<stop  offset="0.502" style="stop-color:#FFA930"/>
	<stop  offset="0.732" style="stop-color:#FF7E37"/>
	<stop  offset="0.792" style="stop-color:#FF7139"/>
</radialGradient>
<path id="path992" fill="url(#path992_1_)" d="M318.615,181.312c2.324,1.473,4.257,2.783,5.959,3.962
	c-6.581-23.021-6.844-47.351-0.818-70.534c-26.622,12.902-50.265,31.174-69.453,53.67
	C255.743,168.378,297.593,167.624,318.615,181.312z"/>
<radialGradient id="path994_1_" cx="-6667.3647" cy="-10020.9014" r="2683.9873" gradientTransform="matrix(0.3275 0 0 0.3275 2746.0427 3192.6265)" gradientUnits="userSpaceOnUse">
	<stop  offset="0.113" style="stop-color:#FFF44F"/>
	<stop  offset="0.456" style="stop-color:#FF980E"/>
	<stop  offset="0.622" style="stop-color:#FF5634"/>
	<stop  offset="0.716" style="stop-color:#FF3647"/>
	<stop  offset="0.904" style="stop-color:#E31587"/>
</radialGradient>
<path id="path994" fill="url(#path994_1_)" d="M135.405,313.833c22.267,131.571,141.493,232.002,276.862,235.866
	c125.284,3.536,205.314-69.191,238.388-140.151c27.997-61.332,31.206-131.08,8.972-194.737v-0.262c0-0.23-0.032-0.327,0-0.262
	l0.065,0.491c10.25,66.833-23.74,131.571-76.886,175.352l-0.164,0.36c-103.541,84.32-202.629,50.887-222.669,37.232
	c-1.408-0.654-2.783-1.375-4.191-2.096c-60.351-28.849-85.302-83.861-79.965-131.015c-29.274,0.426-56.061-16.405-68.34-42.995
	c32.222-19.745,72.367-21.35,106.063-4.257c34.154,15.521,73.056,17.028,108.322,4.257c-0.099-2.357-50.33-22.332-69.911-41.619
	c-10.446-10.314-15.424-15.26-19.812-18.992c-2.391-2.03-4.847-3.896-7.434-5.633c-1.702-1.179-3.635-2.423-5.959-3.962
	c-21.056-13.688-62.904-12.935-64.279-12.901h-0.131c-11.429-14.507-10.643-62.282-9.988-72.27
	c-3.372,1.375-6.614,3.078-9.627,5.108c-10.085,7.204-19.516,15.292-28.193,24.166c-9.922,9.987-18.96,20.793-27.081,32.287v0.032
	v-0.065c-18.533,26.295-31.697,55.995-38.705,87.431C140.611,245.788,130.362,290.584,135.405,313.833z"/>
<radialGradient id="path996_1_" cx="-11156.2441" cy="-25211.9043" r="1966.4982" gradientTransform="matrix(0.0344 0.3258 -0.2138 0.0226 -4518.146 4164.1484)" gradientUnits="userSpaceOnUse">
	<stop  offset="0" style="stop-color:#FFF44F"/>
	<stop  offset="0.06" style="stop-color:#FFE847"/>
	<stop  offset="0.168" style="stop-color:#FFC830"/>
	<stop  offset="0.304" style="stop-color:#FF980E"/>
	<stop  offset="0.356" style="stop-color:#FF8B16"/>
	<stop  offset="0.455" style="stop-color:#FF672A"/>
	<stop  offset="0.57" style="stop-color:#FF3647"/>
	<stop  offset="0.737" style="stop-color:#E31587"/>
</radialGradient>
<path id="path996" fill="url(#path996_1_)" d="M523.045,199.976c10.544,10.348,19.549,22.137,26.786,34.973
	c1.571,1.212,3.077,2.391,4.322,3.536c65.425,60.285,31.141,145.521,28.587,151.612c53.146-43.781,87.102-108.518,76.886-175.352
	c-32.647-81.372-87.954-114.15-133.143-185.568c-2.292-3.602-4.585-7.237-6.812-11.035c-1.277-2.194-2.292-4.159-3.176-5.96
	c-1.867-3.635-3.308-7.466-4.29-11.428c0-0.394-0.295-0.688-0.655-0.754c-0.163-0.032-0.359-0.032-0.557,0
	c-0.032,0-0.098,0.065-0.131,0.099c-0.032,0-0.131,0.098-0.196,0.098C499.533,5.534,433.355,110.287,523.045,199.976z"/>
<radialGradient id="path998_1_" cx="-7176.6509" cy="-9388.8799" r="1675.6613" gradientTransform="matrix(0.3275 0 0 0.3275 2746.0427 3192.6265)" gradientUnits="userSpaceOnUse">
	<stop  offset="0.137" style="stop-color:#FFF44F"/>
	<stop  offset="0.48" style="stop-color:#FF980E"/>
	<stop  offset="0.592" style="stop-color:#FF5634"/>
	<stop  offset="0.655" style="stop-color:#FF3647"/>
	<stop  offset="0.904" style="stop-color:#E31587"/>
</radialGradient>
<path id="path998" fill="url(#path998_1_)" d="M554.12,238.485c-1.244-1.145-2.751-2.357-4.322-3.536
	c-0.59-0.426-1.179-0.884-1.801-1.31c-20.303-14.048-45.091-20.073-69.552-16.897c103.77,51.902,75.936,230.562-67.881,223.816
	c-12.804-0.524-25.443-2.98-37.526-7.237c-2.816-1.048-5.633-2.227-8.482-3.471c-1.637-0.753-3.274-1.474-4.879-2.325l0.196,0.131
	c20.04,13.688,119.096,47.121,222.669-37.231l0.164-0.36C585.294,384.007,619.546,298.737,554.12,238.485z"/>
<radialGradient id="path1000_1_" cx="-6734.3213" cy="-9290.8115" r="1834.0046" gradientTransform="matrix(0.3275 0 0 0.3275 2746.0427 3192.6265)" gradientUnits="userSpaceOnUse">
	<stop  offset="0.094" style="stop-color:#FFF44F"/>
	<stop  offset="0.231" style="stop-color:#FFE141"/>
	<stop  offset="0.509" style="stop-color:#FFAF1E"/>
	<stop  offset="0.626" style="stop-color:#FF980E"/>
</radialGradient>
<path id="path1000" fill="url(#path1000_1_)" d="M291.731,333.088c0,0,13.328-49.643,95.355-49.643
	c8.874,0,34.251-24.756,34.71-31.927c-35.267,12.77-74.169,11.265-108.322-4.257c-33.695-17.094-73.841-15.489-106.063,4.257
	c12.279,26.589,39.065,43.42,68.34,42.994c-5.338,47.187,19.582,102.167,79.965,131.016c1.342,0.654,2.619,1.343,3.995,1.965
	C324.477,409.286,295.365,374.871,291.731,333.088z"/>
<linearGradient id="path1002_1_" gradientUnits="userSpaceOnUse" x1="1556.2566" y1="-951.6749" x2="311.8808" y2="292.6791" gradientTransform="matrix(0.3275 0 0 0.3275 134.5906 401.4009)">
	<stop  offset="0.167" style="stop-color:#FFF44F;stop-opacity:0.8"/>
	<stop  offset="0.266" style="stop-color:#FFF44F;stop-opacity:0.634"/>
	<stop  offset="0.489" style="stop-color:#FFF44F;stop-opacity:0.217"/>
	<stop  offset="0.6" style="stop-color:#FFF44F;stop-opacity:0"/>
</linearGradient>
<path id="path1002" fill="url(#path1002_1_)" d="M688.246,199.715c-12.542-30.158-37.952-62.74-57.895-73.022
	c14.212,27.507,24.068,57.043,29.209,87.561l0.065,0.491c-32.614-81.34-87.922-114.118-133.11-185.536
	c-2.292-3.602-4.584-7.236-6.811-11.035c-1.277-2.193-2.293-4.158-3.177-5.959c-1.866-3.635-3.308-7.467-4.29-11.429
	c0-0.393-0.294-0.688-0.654-0.753c-0.164-0.033-0.36-0.033-0.557,0c-0.033,0-0.099,0.065-0.131,0.098
	c-0.033,0-0.131,0.099-0.197,0.099l0.099-0.196c-72.466,42.437-97.058,120.994-99.316,160.289c3.372-0.229,6.713-0.524,10.15-0.524
	c52.36,0.099,100.595,28.293,126.431,73.809c-20.303-14.048-45.091-20.073-69.552-16.896
	c103.77,51.901,75.936,230.562-67.881,223.815c-12.804-0.523-25.443-2.979-37.526-7.236c-2.816-1.048-5.633-2.227-8.482-3.472
	c-1.637-0.753-3.274-1.473-4.879-2.324l0.196,0.131c-1.408-0.655-2.783-1.375-4.191-2.096c1.343,0.654,2.62,1.343,3.995,1.965
	c-35.234-18.207-64.313-52.622-67.947-94.405c0,0,13.328-49.643,95.355-49.643c8.874,0,34.251-24.756,34.71-31.927
	c-0.099-2.357-50.33-22.333-69.911-41.62c-10.446-10.314-15.424-15.259-19.812-18.992c-2.391-2.03-4.847-3.896-7.434-5.632
	c-6.581-23.021-6.844-47.351-0.818-70.534c-26.622,12.902-50.264,31.174-69.453,53.67h-0.131
	c-11.428-14.506-10.643-62.281-9.987-72.27c-3.373,1.376-6.614,3.078-9.627,5.108c-10.086,7.204-19.517,15.292-28.194,24.167
	c-9.889,10.02-18.893,20.825-26.982,32.353v0.032v-0.066c-18.533,26.295-31.697,55.995-38.705,87.431l-0.393,1.899
	c-0.557,2.554-2.98,15.423-3.34,18.206c0,0.196,0-0.23,0,0c-2.26,13.327-3.668,26.753-4.29,40.244v1.474
	c0.131,159.34,129.443,288.423,288.782,288.259c140.348-0.131,260.229-101.184,284.067-239.501c0.491-3.732,0.884-7.4,1.31-11.166
	C712.904,295.528,706.452,245.689,688.246,199.715z M659.626,214.515l0.065,0.295L659.626,214.515z"/>
</svg>
